<svg xmlns="http://www.w3.org/2000/svg" viewBox="0 0 63.62 77.17"><defs><style>.cls-1{fill:#f7c745;}.cls-2{fill:#002f36;}</style></defs><title>Asset 1</title><g id="Layer_2" data-name="Layer 2"><g id="Layer_1-2" data-name="Layer 1"><path class="cls-1" d="M62.58,48.17h-4.5a1,1,0,0,0,1-1V34.67a1,1,0,0,0-1-1h-4.5a1,1,0,0,0,1-1V20.17a1,1,0,0,0-1-1h6a1,1,0,0,0,1-1V5.67a1,1,0,0,0-1-1H40.38V16h-6V30.5h4.5V45h4.5V59.5h-3V74H24.7V59.5h3V45H23.2V30.5H18.7V16h6V4.67H11.62a1,1,0,0,0-1,1v12.5a1,1,0,0,0,1,1h-6a1,1,0,0,0-1,1v12.5a1,1,0,0,0,1,1h4.5a1,1,0,0,0-1,1v12.5a1,1,0,0,0,1,1h4.5a1,1,0,0,0-1,1v12.5a1,1,0,0,0,1,1h-3a1,1,0,0,0-1,1v12.5a1,1,0,0,0,1,1h48a1,1,0,0,0,1-1V63.67a1,1,0,0,0-1-1h3a1,1,0,0,0,1-1V49.17a1,1,0,0,0-1-1Z"/><path class="cls-2" d="M60.5,43.5h-3v-13A1.5,1.5,0,0,0,56,29H53V17.5h4.54A1.5,1.5,0,0,0,59,16V1.5A1.5,1.5,0,0,0,57.54,0h-50A1.5,1.5,0,0,0,6,1.46v13H1.5A1.5,1.5,0,0,0,0,16V30.5A1.5,1.5,0,0,0,1.5,32h3V45A1.5,1.5,0,0,0,6,46.5H9V58H7.54A1.5,1.5,0,0,0,6,59.46V74a1.5,1.5,0,0,0,1.5,1.5h50A1.5,1.5,0,0,0,59,74V61h1.5A1.5,1.5,0,0,0,62,59.5V45A1.5,1.5,0,0,0,60.5,43.5ZM54.5,32V43.5H40.34V32ZM24.7,58H12V46.5H26.16V58Zm0-14.5V32H37.34V43.5H24.7Zm4.5,3H41.84V58H29.16ZM41.88,3H56V14.5H41.88ZM50,17.5V29H35.84V17.5ZM26.2,3H38.88V14.5H26.2Zm6.63,14.5V29H20.16V17.5H32.83ZM9,3H23.2V14.5H9ZM3,29V17.5H17.16V29ZM7.5,43.5V32H21.66V43.5ZM9,61H23.2V72.5H9ZM26.2,72.5V61H38.88V72.5Zm29.8,0H41.88V61H56ZM59,58H44.84V46.5H59Z"/><path class="cls-2" d="M32.29,13.29a.65.65,0,0,1-.29-.06,1,1,0,0,1-.28-.26l-2.31-2.6a1.56,1.56,0,0,1-.24-.33,1.11,1.11,0,0,1,0-.36V9a.37.37,0,0,1,.07-.26.4.4,0,0,1,.27-.08h1.25a2.53,2.53,0,0,0,1.08-.17.86.86,0,0,0,.48-.57h-2.8a.37.37,0,0,1-.26-.08.33.33,0,0,1-.08-.26V6.85a.33.33,0,0,1,.08-.26.37.37,0,0,1,.26-.08h2.79a1,1,0,0,0-.49-.57,2.42,2.42,0,0,0-1-.17h-1.3a.4.4,0,0,1-.27-.08.37.37,0,0,1-.07-.26V4.56a.37.37,0,0,1,.07-.26.4.4,0,0,1,.27-.08h6.22c.18,0,.26.07.26.21a1.1,1.1,0,0,1,0,.25l-.13.69a.5.5,0,0,1-.15.31.49.49,0,0,1-.32.09H33.76a1.63,1.63,0,0,1,.57.74h.92c.17,0,.26.07.26.21a1.13,1.13,0,0,1,0,.25l-.1.54a.5.5,0,0,1-.15.3.47.47,0,0,1-.32.09h-.49a2.36,2.36,0,0,1-.82,1.48,3.09,3.09,0,0,1-1.77.65l2.49,2.47a1.39,1.39,0,0,1,.25.3.37.37,0,0,1,.08.2c0,.19-.15.29-.44.29Z"/><path class="cls-2" d="M26.25,27.79a.65.65,0,0,1-.29-.06,1,1,0,0,1-.28-.26l-2.31-2.6a1.35,1.35,0,0,1-.24-.34,1,1,0,0,1,0-.36v-.69a.37.37,0,0,1,.07-.26.4.4,0,0,1,.27-.08h1.25A2.7,2.7,0,0,0,25.76,23a.86.86,0,0,0,.48-.57h-2.8a.37.37,0,0,1-.26-.08.33.33,0,0,1-.08-.26v-.71a.33.33,0,0,1,.08-.26.37.37,0,0,1,.26-.08h2.79a1,1,0,0,0-.49-.57,2.25,2.25,0,0,0-1-.18h-1.3a.28.28,0,0,1-.34-.34v-.86a.37.37,0,0,1,.07-.26.4.4,0,0,1,.27-.08h6.22c.18,0,.26.07.26.21a1.1,1.1,0,0,1,0,.25l-.13.69a.53.53,0,0,1-.15.31.49.49,0,0,1-.32.08H27.72a1.66,1.66,0,0,1,.57.75h.92c.17,0,.26.07.26.21a1.13,1.13,0,0,1,0,.25l-.1.53a.53.53,0,0,1-.15.31.47.47,0,0,1-.32.09h-.49a2.36,2.36,0,0,1-.82,1.48,3.09,3.09,0,0,1-1.77.65L28.28,27a1.7,1.7,0,0,1,.25.29.43.43,0,0,1,.08.21c0,.19-.15.29-.44.29Z"/><path class="cls-2" d="M31.54,42.28a.65.65,0,0,1-.29-.06A.84.84,0,0,1,31,42l-2.31-2.6a1.35,1.35,0,0,1-.24-.34,1,1,0,0,1,0-.36V38a.37.37,0,0,1,.07-.26.4.4,0,0,1,.27-.08H30a2.7,2.7,0,0,0,1.08-.17.88.88,0,0,0,.48-.58h-2.8a.33.33,0,0,1-.26-.08.31.31,0,0,1-.08-.26v-.7a.31.31,0,0,1,.08-.26.33.33,0,0,1,.26-.08h2.79a1,1,0,0,0-.49-.57,2.25,2.25,0,0,0-1-.18h-1.3a.35.35,0,0,1-.27-.08.37.37,0,0,1-.07-.26v-.86a.37.37,0,0,1,.07-.26.35.35,0,0,1,.27-.08h6.22c.18,0,.26.07.26.21a1.1,1.1,0,0,1,0,.25l-.13.69a.53.53,0,0,1-.15.31.56.56,0,0,1-.32.08H33a1.61,1.61,0,0,1,.57.75h.92c.17,0,.26.07.26.21a1.13,1.13,0,0,1,0,.25l-.1.53a.53.53,0,0,1-.15.31.47.47,0,0,1-.32.08h-.49a2.38,2.38,0,0,1-.82,1.49,3.09,3.09,0,0,1-1.77.65l2.49,2.47a1.7,1.7,0,0,1,.25.29.4.4,0,0,1,.08.2c0,.2-.15.29-.44.29Z"/><path class="cls-2" d="M35.59,57.26a.65.65,0,0,1-.29-.06,1,1,0,0,1-.28-.26l-2.31-2.6a1.35,1.35,0,0,1-.24-.34,1,1,0,0,1,0-.36V53a.37.37,0,0,1,.07-.26.4.4,0,0,1,.27-.08H34a2.7,2.7,0,0,0,1.08-.17.86.86,0,0,0,.48-.57h-2.8a.37.37,0,0,1-.26-.08.33.33,0,0,1-.08-.26v-.71a.33.33,0,0,1,.08-.26.37.37,0,0,1,.26-.08h2.79a1,1,0,0,0-.49-.57,2.25,2.25,0,0,0-1-.18h-1.3a.28.28,0,0,1-.34-.34v-.86a.37.37,0,0,1,.07-.26.4.4,0,0,1,.27-.08H39c.18,0,.26.07.26.21a1.1,1.1,0,0,1,0,.25l-.13.69a.53.53,0,0,1-.15.31.49.49,0,0,1-.32.08H37.06a1.66,1.66,0,0,1,.57.75h.92c.17,0,.26.07.26.21a1.13,1.13,0,0,1,0,.25l-.1.53a.53.53,0,0,1-.15.31.47.47,0,0,1-.32.09h-.49a2.36,2.36,0,0,1-.82,1.48,3.09,3.09,0,0,1-1.77.65l2.49,2.47a1.7,1.7,0,0,1,.25.29A.43.43,0,0,1,38,57c0,.19-.15.29-.44.29Z"/><path class="cls-2" d="M32.29,71.28a.65.65,0,0,1-.29-.06,1,1,0,0,1-.28-.26l-2.31-2.6a1.56,1.56,0,0,1-.24-.33,1.11,1.11,0,0,1,0-.36V67a.37.37,0,0,1,.07-.26.4.4,0,0,1,.27-.08h1.25a2.53,2.53,0,0,0,1.08-.17.86.86,0,0,0,.48-.57h-2.8a.37.37,0,0,1-.26-.08.33.33,0,0,1-.08-.26v-.71a.33.33,0,0,1,.08-.26.37.37,0,0,1,.26-.08h2.79a1,1,0,0,0-.49-.57,2.42,2.42,0,0,0-1-.17h-1.3a.4.4,0,0,1-.27-.08.37.37,0,0,1-.07-.26v-.87a.37.37,0,0,1,.07-.26.4.4,0,0,1,.27-.08h6.22c.18,0,.26.07.26.21a1.1,1.1,0,0,1,0,.25l-.13.69a.5.5,0,0,1-.15.31.49.49,0,0,1-.32.09H33.76a1.63,1.63,0,0,1,.57.74h.92c.17,0,.26.07.26.21a1.13,1.13,0,0,1,0,.25l-.1.54a.5.5,0,0,1-.15.3.47.47,0,0,1-.32.09h-.49a2.36,2.36,0,0,1-.82,1.48,3.09,3.09,0,0,1-1.77.65l2.49,2.47a1.39,1.39,0,0,1,.25.3.37.37,0,0,1,.08.2c0,.19-.15.29-.44.29Z"/></g></g></svg>